<svg viewBox="0 0 200 200" xmlns="http://www.w3.org/2000/svg">
  <mask id="mask0" mask-type="alpha">
      <path fill="#FF0066" d="M41.6,-32.6C56.6,-14.4,73.3,3.1,69.6,14.4C65.8,25.8,41.7,31.1,23.6,34C5.6,36.9,-6.4,37.5,-23.4,34.6C-40.4,31.8,-62.6,25.6,-61.3,17.8C-59.9,10.1,-35.2,0.9,-21.1,-17.1C-7,-35,-3.5,-61.7,4.9,-65.6C13.3,-69.6,26.6,-50.7,41.6,-32.6Z" transform="translate(100 100)" />
  </mask>
  <g mask="url(#mask0)">
      <path fill="#FF0066" d="M41.6,-32.6C56.6,-14.4,73.3,3.1,69.6,14.4C65.8,25.8,41.7,31.1,23.6,34C5.6,36.9,-6.4,37.5,-23.4,34.6C-40.4,31.8,-62.6,25.6,-61.3,17.8C-59.9,10.1,-35.2,0.9,-21.1,-17.1C-7,-35,-3.5,-61.7,4.9,-65.6C13.3,-69.6,26.6,-50.7,41.6,-32.6Z" transform="translate(100 100)" />
      <image xlink:href=""/>
      </g>
</svg>
